<?xml version="1.0" encoding="UTF-8" ?>
<!DOCTYPE svg PUBLIC "-//W3C//DTD SVG 1.1//EN" "http://www.w3.org/Graphics/SVG/1.1/DTD/svg11.dtd">
<svg width="1192pt" height="670pt" viewBox="0 0 1192 670" version="1.1" xmlns="http://www.w3.org/2000/svg">
<g id="#fefefeff">
<path fill="#fefefe" opacity="1.00" d=" M 607.00 182.50 C 706.33 182.51 805.65 182.49 904.98 182.51 C 906.48 182.41 907.72 182.97 908.70 184.19 C 849.05 184.49 789.39 184.41 729.73 184.24 C 730.15 186.97 730.90 189.62 731.84 192.21 C 744.85 234.49 745.28 279.17 746.32 323.01 C 746.87 341.09 747.00 359.24 749.63 377.17 C 750.81 384.60 753.03 392.17 757.87 398.09 C 762.76 403.89 770.02 406.88 777.08 409.11 C 813.73 420.89 852.78 424.17 891.06 421.24 C 925.24 418.68 958.85 410.98 991.46 400.63 C 1004.61 396.46 1017.94 392.82 1030.92 388.12 C 1043.56 383.50 1055.99 377.27 1065.44 367.47 C 1066.20 366.47 1067.72 365.53 1067.29 364.07 C 1065.01 351.24 1058.69 338.89 1048.59 330.49 C 1043.28 325.88 1036.11 322.97 1029.02 323.80 C 1025.55 324.36 1021.37 326.07 1020.67 329.95 C 1019.90 332.89 1022.01 336.10 1025.09 336.37 C 1031.08 337.32 1035.97 331.89 1041.97 332.72 C 1047.28 333.64 1050.65 338.35 1053.50 342.50 C 1056.48 347.26 1060.25 351.78 1061.29 357.46 C 1058.16 355.25 1055.13 352.33 1051.11 352.06 C 1041.33 351.13 1033.63 359.67 1023.87 358.90 C 1015.24 358.64 1008.26 351.27 1006.48 343.15 C 1004.52 333.72 1007.48 324.04 1011.80 315.69 C 1014.70 310.59 1018.23 305.45 1023.52 302.60 C 1029.17 299.59 1036.05 300.86 1041.62 303.46 C 1053.88 309.44 1063.88 319.55 1070.73 331.27 C 1077.53 342.90 1079.12 357.80 1073.43 370.18 C 1068.80 380.88 1059.83 388.88 1050.37 395.30 C 1037.78 403.77 1023.56 409.35 1009.39 414.57 C 952.91 435.83 892.55 448.90 831.97 446.42 C 809.15 445.19 786.03 440.46 766.04 429.01 C 758.27 424.44 750.05 419.58 745.42 411.56 C 742.38 406.69 741.57 400.90 739.06 395.81 C 736.43 398.97 735.52 403.09 733.37 406.54 C 726.56 418.06 714.40 426.60 700.98 428.00 C 692.79 428.58 684.18 425.62 678.58 419.52 C 676.28 417.13 675.15 413.95 673.28 411.26 C 668.31 420.53 661.13 429.50 650.77 432.85 C 642.24 435.92 632.43 431.76 627.49 424.46 C 625.02 421.08 624.36 416.85 622.73 413.07 C 614.92 423.04 605.18 431.97 593.12 436.39 C 584.78 439.81 574.60 439.16 567.28 433.67 C 561.10 428.77 557.81 420.96 557.33 413.21 C 551.80 416.20 547.03 420.41 541.41 423.25 C 524.14 432.74 504.40 436.08 485.09 438.63 C 458.55 442.36 431.64 442.83 404.91 441.28 C 389.46 440.33 373.50 439.41 359.25 432.77 C 348.04 427.65 338.76 418.29 334.10 406.86 C 328.25 390.46 330.05 372.23 323.03 356.13 C 321.05 357.09 320.77 359.35 320.18 361.23 C 318.06 368.43 316.37 375.95 312.28 382.35 C 308.88 387.32 302.16 389.06 296.60 387.02 C 294.87 401.37 296.95 416.45 291.44 430.16 C 287.31 440.37 278.38 447.52 269.65 453.72 C 251.22 466.87 230.96 477.78 209.13 484.05 C 190.70 489.29 170.51 491.62 152.07 485.15 C 134.99 479.46 121.53 464.88 116.23 447.80 C 110.72 426.19 116.12 403.21 125.43 383.45 C 125.89 383.11 126.82 382.43 127.28 382.09 C 123.23 397.25 118.93 413.00 121.44 428.81 C 124.44 444.45 136.98 456.78 151.31 462.78 C 167.91 469.99 186.86 468.66 203.97 464.00 C 235.88 454.70 265.41 436.98 288.29 412.82 C 288.09 398.66 284.91 384.41 278.09 371.94 C 277.21 369.94 275.42 367.85 276.35 365.56 C 278.16 358.94 279.76 352.27 281.57 345.66 C 283.93 349.33 285.03 353.75 288.10 356.97 C 291.57 360.99 296.49 364.40 302.01 364.17 C 306.71 364.00 310.23 360.24 312.43 356.42 C 316.22 349.63 316.77 341.68 317.59 334.11 C 317.92 331.56 318.78 328.56 321.35 327.43 C 323.85 326.30 326.40 328.17 328.16 329.81 C 331.70 333.27 332.75 338.35 333.19 343.10 C 335.05 357.01 337.06 370.96 340.58 384.57 C 344.01 396.64 353.99 405.47 364.55 411.49 C 371.92 415.97 380.35 418.49 388.93 419.21 C 390.59 415.92 394.16 417.82 396.97 417.98 C 407.27 419.11 417.64 417.91 427.87 416.62 C 454.51 413.45 480.68 405.21 503.84 391.58 C 502.35 376.45 486.40 364.82 471.54 367.78 C 452.99 370.88 437.22 382.19 423.40 394.34 C 415.26 401.66 407.21 409.09 399.21 416.56 C 396.16 416.52 393.12 416.36 390.10 416.05 C 401.26 402.05 413.24 388.65 426.55 376.65 C 439.08 365.29 452.83 354.92 468.51 348.33 C 475.47 345.71 483.13 343.39 490.57 345.27 C 500.43 347.61 508.69 354.36 514.68 362.32 C 521.06 370.61 522.10 382.76 516.80 391.84 C 511.40 401.61 502.69 408.83 494.43 416.07 C 499.46 417.29 504.52 415.57 509.46 414.67 C 519.97 412.55 529.62 407.74 539.25 403.20 C 543.83 400.94 548.33 398.47 552.58 395.61 C 557.45 392.49 560.72 387.54 565.32 384.08 C 566.40 385.11 567.46 386.17 568.53 387.23 C 566.64 392.27 565.67 397.72 566.35 403.09 C 567.46 409.63 573.51 414.82 580.09 415.26 C 590.91 416.27 601.47 411.98 610.28 406.01 C 618.48 400.82 624.43 393.01 630.89 385.94 C 631.69 384.67 633.64 383.87 634.89 385.03 C 635.96 387.21 634.41 389.49 633.42 391.40 C 631.21 394.72 631.40 399.20 633.38 402.59 C 636.35 407.77 642.14 411.10 648.05 411.50 C 652.41 411.61 656.76 409.89 660.00 407.00 C 667.62 400.21 674.36 392.17 678.32 382.68 C 679.45 382.73 680.60 382.79 681.75 382.85 C 681.91 388.61 680.79 395.32 684.90 400.05 C 689.96 406.23 698.87 406.61 706.16 405.37 C 716.13 404.17 725.70 398.33 730.47 389.36 C 735.03 380.30 734.71 369.83 735.05 359.95 C 737.56 300.86 730.66 241.29 713.78 184.58 C 678.19 184.09 642.60 184.47 607.01 184.39 L 607.00 182.50 Z" />
<path fill="#fefefe" opacity="1.00" d=" M 158.91 200.61 C 173.39 200.26 188.12 198.48 202.40 201.79 C 210.94 203.69 219.11 208.72 223.33 216.57 C 231.62 230.62 227.60 251.64 212.89 259.76 C 201.08 265.78 187.45 263.28 174.74 263.92 C 174.38 281.23 174.55 298.54 173.98 315.84 C 168.99 315.59 163.99 315.66 159.00 315.84 C 158.29 307.56 158.96 299.26 158.90 290.97 C 158.94 260.85 158.91 230.73 158.91 200.61 M 175.47 201.25 C 175.21 221.57 174.26 241.91 175.41 262.21 C 188.18 262.39 202.13 264.62 213.69 257.80 C 230.79 247.08 230.39 218.37 213.51 207.62 C 202.16 200.70 188.32 200.75 175.47 201.25 Z" />
<path fill="#fefefe" opacity="1.00" d=" M 773.83 202.08 C 779.21 201.85 784.61 201.85 790.00 202.08 C 789.81 240.60 789.31 279.12 789.17 317.64 C 784.00 317.76 778.83 317.98 773.67 317.61 C 773.63 279.10 773.67 240.59 773.83 202.08 Z" />
<path fill="#fefefe" opacity="1.00" d=" M 283.14 207.12 C 287.83 205.31 292.62 203.76 297.45 202.34 C 309.48 236.16 321.03 270.16 333.03 303.99 C 334.33 307.73 335.52 311.50 336.64 315.30 C 331.52 315.32 326.38 315.92 321.29 315.15 C 315.86 301.27 311.35 287.05 305.77 273.23 C 291.29 273.58 276.81 273.38 262.33 273.29 C 256.84 287.87 252.34 302.81 246.74 317.35 C 246.39 316.95 245.68 316.15 245.33 315.75 C 250.14 302.95 254.64 290.02 258.98 277.04 C 267.02 253.73 275.21 230.47 283.14 207.12 M 281.00 218.95 C 275.31 236.43 268.65 253.60 263.21 271.15 C 277.12 271.65 291.04 270.94 304.95 271.35 C 303.83 266.44 301.75 261.84 300.11 257.10 C 294.80 242.68 289.79 228.14 284.28 213.79 C 281.97 214.47 281.72 217.02 281.00 218.95 Z" />
<path fill="#fefefe" opacity="1.00" d=" M 638.11 203.63 C 647.45 200.97 657.90 202.66 665.88 208.21 C 671.40 211.91 675.64 217.14 679.39 222.55 C 682.45 217.82 680.06 212.13 681.00 206.95 C 683.96 212.99 681.05 219.63 681.84 225.94 C 682.60 231.53 681.58 237.14 681.78 242.76 C 679.65 239.14 680.54 234.79 679.70 230.85 C 678.04 220.87 670.44 212.99 661.94 208.13 C 655.08 204.00 646.56 203.34 638.91 205.33 C 635.70 206.02 632.81 207.76 629.54 208.20 C 627.68 210.44 624.44 211.42 623.46 214.35 C 620.63 220.44 623.73 227.35 627.78 232.08 C 638.76 245.45 655.21 252.12 668.88 262.13 C 676.86 268.09 683.38 277.65 682.05 288.01 C 679.90 304.69 663.45 317.30 646.97 316.93 C 633.34 316.86 621.13 307.68 615.01 295.88 C 612.26 300.71 614.12 306.26 613.52 311.47 C 611.03 308.56 612.52 304.34 612.43 300.89 C 613.90 292.21 610.39 283.29 613.34 274.79 C 614.06 286.80 616.73 300.36 627.03 307.95 C 639.48 318.07 659.44 317.21 670.71 305.69 C 673.55 303.00 674.97 298.92 674.37 295.05 C 673.51 289.24 669.62 284.22 664.79 281.05 C 650.78 271.70 634.23 265.95 622.24 253.73 C 615.15 246.61 610.33 236.00 613.13 225.92 C 615.06 217.68 621.56 211.53 628.42 207.09 C 631.74 206.21 634.75 204.42 638.11 203.63 Z" />
<path fill="#fefefe" opacity="1.00" d=" M 814.43 204.18 C 818.62 204.16 822.81 204.19 827.00 204.16 C 843.73 238.30 859.28 272.98 875.75 307.24 C 876.29 308.42 877.17 309.30 878.40 309.88 C 878.51 274.87 877.80 239.86 878.00 204.84 C 883.30 204.69 888.60 204.64 893.90 204.77 C 894.52 235.84 894.07 266.93 894.17 298.01 C 894.02 304.86 894.62 311.74 893.82 318.58 C 889.06 318.39 884.24 319.18 879.54 318.44 C 877.74 316.78 877.10 314.31 876.03 312.20 C 861.83 281.97 847.56 251.78 833.38 221.55 C 831.92 218.51 830.72 215.27 828.37 212.78 C 827.72 248.13 828.33 283.48 828.17 318.84 C 823.47 318.84 818.79 318.85 814.10 318.70 C 813.87 288.46 814.15 258.22 814.08 227.97 C 814.23 220.04 813.73 212.09 814.43 204.18 Z" />
<path fill="#fefefe" opacity="1.00" d=" M 498.87 206.44 C 508.20 205.54 517.63 205.24 527.01 205.72 C 543.65 206.15 560.31 205.69 576.95 205.97 C 575.78 207.55 573.72 206.97 572.08 207.10 C 557.56 206.93 543.03 206.85 528.51 207.18 C 528.12 209.43 527.72 211.69 527.68 213.98 C 527.55 229.88 527.67 245.78 527.40 261.67 C 537.60 261.99 547.80 261.74 558.01 261.85 C 559.75 261.83 561.32 262.72 562.91 263.33 C 551.10 264.63 539.19 263.34 527.34 263.84 C 527.29 281.38 526.65 298.94 527.21 316.47 C 543.32 316.96 559.45 316.50 575.55 316.70 C 575.81 316.95 576.34 317.46 576.60 317.72 C 560.09 317.96 543.56 317.52 527.05 317.95 C 517.63 318.93 508.17 317.80 498.76 317.39 C 502.42 315.95 506.39 316.82 510.21 316.79 C 511.42 307.23 510.80 297.60 510.92 287.99 C 510.97 260.96 511.15 233.93 510.84 206.91 C 506.85 206.87 502.77 207.59 498.87 206.44 Z" />
<path fill="#fefefe" opacity="1.00" d=" M 908.64 206.94 C 917.76 206.38 926.92 205.84 936.06 206.37 C 952.79 206.84 969.53 206.33 986.26 206.65 C 985.72 207.44 984.99 207.80 984.08 207.74 C 968.17 207.66 952.26 207.48 936.36 207.85 C 935.60 225.97 935.96 244.10 935.93 262.22 C 946.31 262.79 956.71 262.36 967.10 262.51 C 968.57 262.48 969.98 262.98 971.36 263.47 C 959.57 264.21 947.74 263.66 935.94 263.84 C 935.12 277.20 935.60 290.59 935.30 303.97 C 935.05 308.17 936.14 312.29 936.04 316.49 C 951.68 316.81 967.33 316.72 982.98 316.57 C 984.16 316.35 985.16 316.87 986.00 317.66 C 969.36 318.04 952.69 317.47 936.05 317.97 C 926.69 318.96 917.30 317.71 907.94 317.43 C 911.71 315.94 915.78 316.84 919.71 316.76 C 920.88 301.87 919.90 286.94 920.32 272.03 C 920.30 250.54 920.46 229.05 920.17 207.56 C 916.33 207.44 912.30 208.45 908.64 206.94 Z" />
<path fill="#fefefe" opacity="1.00" d=" M 407.75 243.85 C 412.85 238.47 416.29 231.75 421.39 226.36 C 421.46 269.91 421.38 313.47 421.42 357.02 C 421.48 360.80 420.08 364.43 418.18 367.63 C 416.61 367.92 416.12 365.68 415.34 364.70 C 410.81 354.57 406.28 344.45 401.63 334.38 C 400.09 331.13 398.93 327.65 396.84 324.69 C 395.99 323.92 395.03 323.29 394.13 322.62 C 393.68 319.76 393.20 316.91 392.74 314.06 C 392.28 315.14 391.84 316.24 391.42 317.34 L 391.20 317.90 C 391.31 316.06 391.08 314.28 390.50 312.54 C 390.95 311.04 390.92 309.46 390.87 307.92 C 390.13 294.28 390.92 280.62 390.60 266.98 C 390.53 262.75 390.13 258.25 392.15 254.37 C 394.84 248.94 397.08 243.29 399.14 237.59 C 400.46 239.70 401.57 242.01 403.37 243.77 C 404.52 244.85 406.65 245.22 407.75 243.85 Z" />
<path fill="#fefefe" opacity="1.00" d=" M 1002.87 262.90 C 1003.90 261.48 1005.72 261.89 1007.25 261.81 C 1008.81 266.91 1014.01 269.52 1016.78 273.86 C 1013.14 278.50 1008.65 282.36 1004.32 286.32 C 1000.32 282.07 996.11 278.03 992.01 273.88 C 995.61 270.21 999.21 266.52 1002.87 262.90 Z" />
<path fill="#fefefe" opacity="1.00" d=" M 193.39 341.16 C 193.84 341.03 194.73 340.76 195.18 340.63 C 199.52 344.04 203.13 348.27 207.11 352.07 C 203.45 356.86 198.90 360.83 194.54 364.97 C 190.45 360.63 185.83 356.77 182.24 351.97 C 186.27 348.69 189.53 344.60 193.39 341.16 Z" />
<path fill="#fefefe" opacity="1.00" d=" M 298.86 468.39 C 303.18 463.57 308.05 459.27 312.36 454.43 C 317.38 458.20 321.57 462.91 325.81 467.50 L 326.28 466.30 C 326.02 467.54 325.94 468.90 324.97 469.85 C 321.13 474.30 317.11 478.65 312.37 482.15 C 307.96 477.47 303.32 473.02 298.86 468.39 Z" />
<path fill="#fefefe" opacity="1.00" d=" M 341.20 454.59 C 345.68 459.09 350.53 463.27 354.42 468.32 C 350.63 473.36 345.61 477.26 341.53 482.04 C 335.98 479.21 332.98 473.42 327.95 469.98 C 326.43 469.33 326.85 467.53 326.80 466.25 L 327.35 467.64 C 332.09 463.41 335.86 458.13 341.20 454.59 Z" />
</g>
<g id="#262a28e7">
<path fill="#262a28" opacity="0.91" d=" M 408.91 183.85 C 415.77 183.60 422.66 183.60 429.46 184.62 C 429.50 186.55 429.53 188.48 429.53 190.42 C 428.81 191.81 427.35 193.30 428.16 194.99 C 430.62 200.75 433.64 206.53 433.81 212.95 C 433.84 218.21 436.39 222.97 436.83 228.17 C 436.63 227.16 436.42 226.15 436.21 225.14 C 435.64 225.26 434.51 225.51 433.94 225.63 C 433.55 222.21 432.44 218.89 429.83 216.51 C 430.37 213.36 430.65 210.10 429.87 206.98 C 429.08 203.09 426.82 199.73 425.76 195.94 C 425.20 192.87 426.00 189.75 426.31 186.69 C 421.30 186.66 416.29 186.60 411.29 186.53 C 411.43 190.32 412.10 194.10 411.86 197.90 C 410.20 200.72 406.67 202.45 406.28 205.95 C 404.94 216.70 402.19 227.21 399.14 237.59 C 397.08 243.29 394.84 248.94 392.15 254.37 C 390.13 258.25 390.53 262.75 390.60 266.98 C 390.92 280.62 390.13 294.28 390.87 307.92 C 390.92 309.46 390.95 311.04 390.50 312.54 L 389.47 313.63 C 384.86 302.33 379.72 291.26 375.02 280.01 C 374.00 278.16 373.65 275.92 375.64 274.57 C 391.58 258.36 398.90 235.87 402.40 213.88 C 403.23 209.37 403.15 204.52 405.38 200.38 C 406.57 198.84 408.45 198.04 409.86 196.72 C 409.34 195.08 408.44 193.60 407.64 192.10 C 408.02 189.34 408.46 186.59 408.91 183.85 Z" />
<path fill="#262a28" opacity="0.91" d=" M 391.42 317.34 C 391.84 316.24 392.28 315.14 392.74 314.06 C 393.20 316.91 393.68 319.76 394.13 322.62 C 395.03 323.29 395.99 323.92 396.84 324.69 C 396.87 325.25 396.93 326.37 396.96 326.93 C 395.37 326.15 393.79 325.37 392.21 324.60 C 391.92 322.20 390.77 319.74 391.42 317.34 Z" />
</g>
<g id="#cc1e24ff">
<path fill="#cc1e24" opacity="1.00" d=" M 411.86 197.90 C 412.10 194.10 411.43 190.32 411.29 186.53 C 416.29 186.60 421.30 186.66 426.31 186.69 C 426.00 189.75 425.20 192.87 425.76 195.94 C 426.82 199.73 429.08 203.09 429.87 206.98 C 430.65 210.10 430.37 213.36 429.83 216.51 C 427.57 220.23 424.41 223.26 421.39 226.36 C 416.29 231.75 412.85 238.47 407.75 243.85 C 406.65 245.22 404.52 244.85 403.37 243.77 C 401.57 242.01 400.46 239.70 399.14 237.59 C 402.19 227.21 404.94 216.70 406.28 205.95 C 406.67 202.45 410.20 200.72 411.86 197.90 Z" />
</g>
<g id="#0d763dff">
<path fill="#0d763d" opacity="1.00" d=" M 421.39 226.36 C 424.41 223.26 427.57 220.23 429.83 216.51 C 432.44 218.89 433.55 222.21 433.94 225.63 C 434.51 225.51 435.64 225.26 436.21 225.14 C 436.42 226.15 436.63 227.16 436.83 228.17 C 437.71 231.84 437.57 235.77 435.61 239.07 C 436.56 247.31 436.68 255.67 435.39 263.87 C 434.70 267.58 435.66 271.28 435.79 274.99 C 436.18 285.13 434.08 295.12 432.72 305.12 C 432.36 309.37 430.03 313.06 429.05 317.16 C 426.95 322.15 427.28 327.62 426.51 332.88 C 425.12 339.92 432.10 346.59 428.53 353.53 C 424.80 359.79 421.53 366.39 416.85 372.02 C 413.60 366.67 411.60 360.71 408.91 355.09 C 405.37 347.00 401.32 339.15 398.01 330.96 C 397.52 329.66 396.94 328.34 396.96 326.93 C 396.93 326.37 396.87 325.25 396.84 324.69 C 398.93 327.65 400.09 331.13 401.63 334.38 C 406.28 344.45 410.81 354.57 415.34 364.70 C 416.12 365.68 416.61 367.92 418.18 367.63 C 420.08 364.43 421.48 360.80 421.42 357.02 C 421.38 313.47 421.46 269.91 421.39 226.36 Z" />
</g>
</svg>
